<svg class="my-svg-icon" xmlns="http://www.w3.org/2000/svg" width="40" height="40" viewBox="-0.5 -0.5 24.5 24.5">
    <path style="fill: #e7ad52" d="M 12.000742 -0.0004296875 C 5.3737556 -0.0004296875 -0.0004296875 5.3737556 -0.0004296875 12.000742 C -0.0004296875 18.62773 5.3737556 24 12.000742 24 C 18.62773 24 24 18.62773 24 12.000742 C 24 5.3737556 18.62773 -0.0004296875 12.000742 -0.0004296875 z M 12.228516 4.1913672 L 12.278281 4.1913672 C 14.32644 4.2081252 16.298183 4.4296904 17.44625 4.9569922 C 17.44625 4.9569922 19.723984 5.9758346 19.723984 9.4512109 C 19.723984 9.4512109 19.752358 12.015893 19.40625 13.796133 C 19.186578 14.926253 17.438078 16.163393 15.430742 16.403086 C 14.384011 16.52799 13.354274 16.642988 12.255313 16.592578 C 10.45807 16.510248 9.0396875 16.161914 9.0396875 16.161914 C 9.0396875 16.336876 9.0506946 16.503772 9.0722266 16.65957 C 9.3058792 18.433255 10.829806 18.539402 12.274453 18.588945 C 13.732567 18.638825 15.030703 18.229102 15.030703 18.229102 L 15.091953 19.547891 C 15.091953 19.547891 14.072147 20.096027 12.255313 20.196758 C 11.253458 20.251808 10.008135 20.170621 8.5592578 19.787148 C 5.416882 18.955422 4.8769844 15.606192 4.7942969 12.207461 C 4.7690629 11.198357 4.7847266 10.247035 4.7847266 9.4512109 C 4.7847266 5.9758346 7.0624609 4.9569922 7.0624609 4.9569922 C 8.2106105 4.4296904 10.180357 4.2081152 12.228516 4.1913672 z M 9.9105859 6.9074219 C 9.1731987 6.9074219 8.5783535 7.1654987 8.1247656 7.6711328 C 7.6849054 8.1767669 7.4663281 8.8610539 7.4663281 9.7210937 L 7.4663281 13.928203 L 9.1334766 13.928203 L 9.1334766 9.8455078 C 9.1334766 8.984523 9.4960499 8.5458594 10.220664 8.5458594 C 11.021838 8.5458594 11.422695 9.0654335 11.422695 10.090508 L 11.422695 12.326133 L 13.080273 12.326133 L 13.080273 10.090508 C 13.080273 9.0654335 13.483045 8.5458594 14.284219 8.5458594 C 15.008833 8.5458594 15.371406 8.984523 15.371406 9.8455078 L 15.371406 13.928203 L 17.038555 13.928203 L 17.038555 9.7210937 C 17.038555 8.8610539 16.817986 8.1767669 16.378203 7.6711328 C 15.924538 7.1654987 15.331596 6.9074219 14.594297 6.9074219 C 13.741077 6.9074219 13.093924 7.2353423 12.666836 7.89125 L 12.251484 8.5860547 L 11.836133 7.89125 C 11.408967 7.2353423 10.763728 6.9074219 9.9105859 6.9074219 z"/>
</svg>
